<?xml version="1.0" encoding="utf-8"?>
<!-- Generator: Adobe Illustrator 16.0.0, SVG Export Plug-In . SVG Version: 6.00 Build 0)  -->
<!DOCTYPE svg PUBLIC "-//W3C//DTD SVG 1.1//EN" "http://www.w3.org/Graphics/SVG/1.1/DTD/svg11.dtd">
<svg version="1.1" id="Layer_1" xmlns="http://www.w3.org/2000/svg" xmlns:xlink="http://www.w3.org/1999/xlink" x="0px" y="0px"
	 width="1136.637px" height="643.182px" viewBox="0 0 1136.637 643.182" enable-background="new 0 0 1136.637 643.182"
	 xml:space="preserve">
<rect id="backgroundrect" fill="none" width="1136.637" height="643.182"/>
<title>status update</title>
<image overflow="visible" width="1366" height="768" xlink:href="../../../../../../denizhal_foto/3.jpg"  transform="matrix(0.5619 0 0 0.5619 200.02 56)">
</image>
<g>
	<title>Layer 1</title>
	<path id="svg_1" opacity="0.1" fill="#3C74F3" enable-background="new    " d="M650.4,132.757
		c-70.761,0.54-138.73-15.45-203.73-33.27c-65-17.82-129.47-37.83-198.84-46c-44.62-5.28-95.4-4.45-130.48,16
		c-33.75,19.66-43.73,51.88-48.66,81.62c-3.71,22.38-5.52,45.86,7.54,66.23c9.07,14.13,24.69,25.73,35.68,39.19
		c38.26,46.84,14.54,107.11-23.4,155.51c-17.77,22.67-38.57,44.49-52.11,68.49s-19.18,51.11-5.79,74.6
		c13.28,23.29,43.54,40.061,76.08,51.45c66.1,23.141,143.17,27.7,218.23,29.17c166.14,3.24,332.71-6.64,498.82-16.51
		c61.479-3.65,123.229-7.33,183.479-17.15c33.46-5.449,67.931-13.43,91.75-30.6c30.24-21.8,36.681-57.12,15-82.34
		c-36.37-42.29-133-49.681-159-95.53c-14.31-25.239-1.569-54.37,17-78.91c39.94-52.65,108.34-100,109.95-158.63
		c1.11-40.25-34-79.28-86.68-96.43c-55.24-18-130.78-12.79-169.84,21.62C785.24,116.637,712.9,132.287,650.4,132.757z"/>
	<path id="svg_2" fill="#3C74F3" d="M928.97,550.93c0,0-12.29-8.109-24.47-2.35c0,0,3.75,7.229,19.17,6.54L928.97,550.93z"/>
	<path id="svg_3" fill="#3C74F3" d="M930.48,551.36c0,0,3.739,14.239-5.631,23.93c0,0-5.64-5.87-0.05-20.25L930.48,551.36z"/>
	<path id="svg_4" fill="#3C74F3" d="M945.81,537.69c0,0-0.909-12.11-28.26-8.101c0,0-0.12,7.82,9.48,11.521
		C936.63,544.81,941.02,541.69,945.81,537.69z"/>
	<path id="svg_5" fill="#3C74F3" d="M947.49,537.61c0,0,11.56,3.71,1.25,29.359c0,0-7.62-1.7-9-11.91S942.48,541.32,947.49,537.61z"
		/>
	<path id="svg_6" fill="#3C74F3" d="M962.97,520.42c0,0,1.57-19.93-26.38-17.88c0,0-2,18,21.45,22.68L962.97,520.42z"/>
	<path id="svg_7" fill="#3C74F3" d="M981.4,497.93c0,0-3.83-22.59-31.761-15.859c0,0-0.109,19.529,27.2,21.239L981.4,497.93z"/>
	<path id="svg_8" fill="#3C74F3" d="M994.94,474.67c0,0-6.42-22-34.101-15.42c0,0,6.59,19.79,32.26,19.479L994.94,474.67z"/>
	<path id="svg_9" fill="#3C74F3" d="M1007.76,451.95c0,0-6.27-22.83-33-16c0,0,8.92,21.689,31.23,19.87L1007.76,451.95z"/>
	<path id="svg_10" fill="#3C74F3" d="M1016.03,430.37c0,0-4.82-27.92-29.74-21.74c0,0,7.229,25.4,27.9,25.8L1016.03,430.37z"/>
	<path id="svg_11" fill="#3C74F3" d="M1023.77,404.3c0,0-5.779-28.15-31-20c0,0,9.891,26.6,29.221,23.85L1023.77,404.3z"/>
	<path id="svg_12" fill="#3C74F3" d="M1028.57,380.03c0,0-9.19-28.141-28.681-27.381c0,0,9.4,29.73,27.001,33L1028.57,380.03z"/>
	<path id="svg_13" fill="#3C74F3" d="M1031.62,356.36c0,0-10-33.881-25.87-31.271c0,0,6.93,25.9,25.3,36.55L1031.62,356.36z"/>
	<path id="svg_14" fill="#3C74F3" d="M1033.4,328.08c0,0-9.37-28.23-25-29.36c0,0,6.369,27.78,24.68,36.69L1033.4,328.08z"/>
	<path id="svg_15" fill="#3C74F3" d="M1035.24,301.8c0,0-11.69-28.26-22-28.9c0,0,5.08,27.83,21,33.54L1035.24,301.8z"/>
	<path id="svg_16" fill="#3C74F3" d="M1036.54,277.23c0,0-7.18-30.7-17.521-33.24c0,0,1.41,25.11,16.48,35.54L1036.54,277.23z"/>
	<path id="svg_17" fill="#3C74F3" d="M1040.4,245.14c0,0-7.561-24.46-15.931-28.19c0,0,1.66,28.84,14,34.18L1040.4,245.14z"/>
	<path id="svg_18" fill="#3C74F3" d="M1043.66,224.07l1.53-43.14c0,0-15.62,32.56-2.681,50.75L1043.66,224.07z"/>
	<path id="svg_19" fill="#3C74F3" d="M1055.75,181.2c0,0,11.26-31.5,14-33.26c0,0-22.1,20.44-19.939,46.73L1055.75,181.2z"/>
	<path id="svg_20" fill="#3C74F3" d="M963.74,520.28c0,0,19.82-2.601,19.22,25.42c0,0-17.91,2.91-23.75-20.25L963.74,520.28z"/>
	<path id="svg_21" fill="#3C74F3" d="M982.4,497.17c0,0,22.909-0.07,21,28.6c0,0-19.221,3.431-25.57-23.18L982.4,497.17z"/>
	<path id="svg_22" fill="#3C74F3" d="M995.16,476.52c0,0,20.79-9.75,34.1,15.421c0,0-19.21,8.119-35.93-11.351L995.16,476.52z"/>
	<path id="svg_23" fill="#3C74F3" d="M1008.22,452.16c0,0,21.29-10.37,33.79,14.21c0,0-22.17,7.64-35.54-10.32L1008.22,452.16z"/>
	<path id="svg_24" fill="#3C74F3" d="M1015.75,430.979c0,0,20.49-19.58,36.85,0.221c0,0-20.939,16.1-37.79,4.14L1015.75,430.979z"/>
	<path id="svg_25" fill="#3C74F3" d="M1022.61,403.63c0,0,20.62-20,36.84,0.92c0,0-23.141,16.431-37.57,3.28L1022.61,403.63z"/>
	<path id="svg_26" fill="#3C74F3" d="M1026.47,379.229c0,0,15.88-25,34.57-19.41c0,0-16.47,26.471-34.4,25.291L1026.47,379.229z"/>
	<path id="svg_27" fill="#3C74F3" d="M1031.15,356.2c0,0,16-31.49,31.13-26c0,0-11.53,24.199-31.54,31.31L1031.15,356.2z"/>
	<path id="svg_28" fill="#3C74F3" d="M1032.25,326.47c0,0,16.45-24.78,31.86-21.76c0,0-13.45,25.13-33.45,28.93L1032.25,326.47z"/>
	<path id="svg_29" fill="#3C74F3" d="M1033.5,301.19c0,0,12.75-27.8,23.12-28c0,0-6.13,27.61-22.26,32.72L1033.5,301.19z"/>
	<path id="svg_30" fill="#3C74F3" d="M1036.03,276.63c0,0,14.17-28.17,24.819-28.22c0,0-7.25,24.08-24.35,30.69L1036.03,276.63z"/>
	<path id="svg_31" fill="#3C74F3" d="M1038.16,246.87c0,0,10.6-23.3,19.38-25.94c0,0-5.3,28.4-18.21,32.12L1038.16,246.87z"/>
	<path id="svg_32" fill="#3C74F3" d="M1044.92,223.25l23.69-36.08c0,0-6.07,35.6-27.141,43L1044.92,223.25z"/>
	<path id="svg_33" fill="#3C74F3" d="M1061.18,184.1c0,0,27.54-19,28.53-22.08c0,0-14,26.62-40,31.32L1061.18,184.1z"/>
	<path id="svg_34" fill="#3C74F3" d="M1062.83,175.55c0,0,31.61-30.38,39.68-30.35c0,0-26.069,1.19-40.439,28.74L1062.83,175.55z"/>
	<path id="svg_35" fill="#444053" d="M1038.47,251.38l1.15,0.15c5.939-46.5,14.6-74,24.39-77.37l-0.38-1.1
		C1053.25,176.66,1044.55,203.74,1038.47,251.38z"/>
	<path id="svg_36" fill="#444053" d="M1029.74,362.55l1.74,0.15c0.359-4.34,0.64-8.79,0.829-13.21
		c1.66-38.48,4.23-73.82,7.62-100.31l-1-1.25c-3.39,26.54-6.689,62.95-8.35,101.49C1030.4,353.8,1030.1,358.24,1029.74,362.55z"/>
	<path id="svg_37" fill="#444053" d="M896.51,573.06c0.311-0.13,30.94-13.81,62.73-46.439c18.622-19.107,34.098-41.047,45.85-65
		c14.69-29.93,23.65-66.71,26.66-102.439l-1.82,0.85c-6.739,80.199-43.26,135-72.29,164.85c-31.479,32.33-61.76,45.87-62.06,46
		L896.51,573.06z"/>
	<path id="svg_38" opacity="0.24" fill="#FFFFFF" enable-background="new    " d="M969.85,31.19v518.42
		c0,15.409-14.869,28-33.229,28H233.25c-18.36,0-33.23-12.54-33.23-28V31.19C200.02,15.75,214.89,0,233.25,0l703.33,1.71
		C954.94,1.71,969.85,15.8,969.85,31.19z"/>
	<path id="svg_39" fill="#3F3D56" d="M969.85,31.35v24H200.02v-24C200.02,14.036,214.056,0,231.37,0c0.01,0,0.02,0,0.03,0h707.11
		C955.82,0.005,969.85,14.04,969.85,31.35z"/>
	<circle id="svg_40" opacity="0.8" fill="#FA5959" enable-background="new    " cx="237.32" cy="27.67" r="11.08"/>
	<circle id="svg_41" opacity="0.8" fill="#FED253" enable-background="new    " cx="269.55" cy="27.67" r="11.08"/>
	<circle id="svg_42" opacity="0.8" fill="#8CCF4D" enable-background="new    " cx="301.78" cy="27.67" r="11.08"/>
	
		<linearGradient id="svg_71_1_" gradientUnits="userSpaceOnUse" x1="261.7993" y1="716.625" x2="261.7993" y2="717.625" gradientTransform="matrix(178.4723 0 0 -212.3223 -46293.6094 152762.0156)">
		<stop  offset="0" style="stop-color:#808080;stop-opacity:0.25"/>
		<stop  offset="0.54" style="stop-color:#808080;stop-opacity:0.12"/>
		<stop  offset="1" style="stop-color:#808080;stop-opacity:0.1"/>
	</linearGradient>
	<path id="svg_71" fill="url(#svg_71_1_)" d="M519.56,570.28L497.62,538.47c0,0-0.41-7.88-1.851-9.72
		c-1.439-1.84-0.31-5.93-0.31-5.93s1.54-2.25,0.21-2.46s-0.21-5.221-0.21-5.221l-0.1-8c0,0,1.229-7.68,0.21-9.52
		c-0.616-1.014-0.577-2.296,0.1-3.271c0,0,1.23-4.399,0-5.529c-1.229-1.13-0.93-8-0.62-13.4c0.311-5.4-2.149-8.49-2.149-9.31
		c0-0.82-8.101-8.79-8.101-9.511c0-0.72-5.13-3.68-8.21-4.5c-3.08-0.819-4.609-1.43-4.51-1.84s-4.82-2-4.82-2s-4.3-0.31-5.95-2.45
		c-1.649-2.14-6.649-2.779-6.8-2.79l-0.09-0.43l-0.09-0.46c0.38-0.65,0.74-1.32,1.07-2c0.1-0.21,0.189-0.41,0.279-0.62
		c1.805,0.008,3.568-0.54,5.051-1.57c1.465-1.224,2.353-3.003,2.449-4.909c0.086-1.89-0.324-3.769-1.189-5.45
		c-0.9-1.84-2.221-3.75-1.771-5.75c0.2-0.86,0.721-1.62,1-2.46c0.396-1.651,0.131-3.393-0.739-4.85
		c-0.771-1.48-1.851-2.791-2.721-4.23c-1.104-1.84-1.839-3.878-2.16-6c-0.065-1.127-0.336-2.231-0.8-3.26
		c-0.468-0.725-1.08-1.345-1.8-1.82c-3.203-2.285-7.066-3.459-11-3.34c-2.79,0.1-5.58,0.85-8.35,0.51
		c-1.656-0.289-3.285-0.714-4.87-1.27c-3.44-1-7.41-1.44-10.4,0.529c-2.99,1.971-4.189,5.84-6.22,8.87
		c-1.8,2.67-4.42,4.92-5.79,7.761c0-0.061,0-0.11,0-0.17c-0.33,0.658-0.585,1.354-0.76,2.069c-0.381,2.265-0.227,4.586,0.449,6.78
		c0.158,1.173,0.751,2.243,1.66,3c1,0.649,2.4,0.5,3.59,0.71c-0.05,0.189-0.1,0.39-0.14,0.58c-0.343,1.601-0.514,3.233-0.51,4.87
		c-0.004,10.367,6.805,19.506,16.74,22.47c0,0.21,0,0.42,0,0.62c-0.002,0.588-0.035,1.176-0.101,1.76l0,0
		c0,0-10.31-2.12-13.069-0.68c-2.761,1.439-8.211,2.55-9,3.37c-0.79,0.819-2.87,0.21-4.721,5c-1.85,4.79-2.05,9.72-4.399,12
		c-2.351,2.279-3.591,3.79-3.7,5.43c-0.11,1.64,0.31,2-0.61,2.55s-2.26,2.66-1.85,3.48c0.291,1.158-0.157,2.377-1.13,3.069
		c-0.987,0.698-1.531,1.866-1.431,3.07c0,0-0.62,2.25-2.05,2.76c-1.43,0.511-2.359,3.891-2.359,3.891l-4.65,5.35l-9.22-10.2
		c-1.438-1.585-3.888-1.71-5.48-0.28l-4.54,4.03c-1.747,0.424-3.326,1.365-4.53,2.7c-0.983,1.014-1.775,2.195-2.34,3.49
		l-2.479,2.229c-1.6,1.975-1.853,4.718-0.641,6.95l5.91,6.53v0.06c-2.095,0.175-4.087,0.983-5.71,2.32
		c-8.81,7.78-8.92,14.94-7.58,18.21s12.511,15.86,12.511,15.86s6.489,8.439,15.859,12.93l0,0l-0.07,0.07
		c-0.189,0.199-0.369,0.409-0.55,0.64l-0.149,0.2c-0.053,0.063-0.1,0.129-0.141,0.2l-0.17,0.239l-0.13,0.2l-0.18,0.3l-0.11,0.19
		l-0.21,0.4c0,0-0.05,0.09-0.07,0.13c-0.02,0.04-0.17,0.37-0.25,0.56l-0.09,0.21c0,0.13-0.1,0.271-0.16,0.4l-0.09,0.27
		c0,0.13-0.09,0.261-0.13,0.4l-0.09,0.29c-0.04,0.14-0.08,0.29-0.12,0.45c0,0.09-0.05,0.18-0.07,0.27
		c-0.02,0.09-0.109,0.49-0.159,0.74c-0.006,0.097-0.006,0.193,0,0.29c-0.041,0.175-0.071,0.352-0.091,0.53c0,0.12,0,0.239-0.05,0.37
		c-0.05,0.13-0.05,0.329-0.069,0.51c-0.021,0.18,0,0.25,0,0.39s0,0.38,0,0.58v0.36c0,0.319,0,0.649,0,1
		c-0.21,12,0.489,13.71,0.489,13.71c0.927,2.256,3.016,3.822,5.44,4.08c0.588,0.042,1.179,0.012,1.76-0.091
		c5.33-0.93,17.84-3.069,22.25-2.25c2.65,0.49,7.561-0.239,11.05-0.899l0.92-0.18l0.641,2l2-0.561l1.72,1l1.09,0.62
		c2,6.86,10.24,4.52,10.24,4.52l1.95,1.131l19.79,0.51c2.218,1.346,4.563,2.471,7,3.359c0.326,0.101,0.661,0.175,1,0.221
		c1.833,0.147,3.673,0.181,5.51,0.1c1.52,0,2.69-0.1,2.69-0.1s-0.2-5.37-0.49-11.391c6.134-0.151,12.253-0.651,18.33-1.5
		c10.569-1.859,15-11.47,16.6-16.6c0.479,2.098,0.813,4.227,1,6.37c0.432,1.872,0.979,3.716,1.64,5.52
		c0.576,1.457,1.336,2.835,2.261,4.101c7.79-2.66,3.069-6.65,1.43-8.391c-1.64-1.739,1.13-3.17,1.13-3.17s2.16-1.439,2-2.77
		s-0.31-2.76,6.67-2.66C520.03,576.05,519.56,570.28,519.56,570.28z M411.28,504.96c0.09,0.59,1.06,6.89,1.939,8.55
		c0.252,1.104,0.329,2.241,0.23,3.37c-4.13-0.33-8.431-0.51-8.431-0.51c0.124,0.151,0.2,0.336,0.221,0.53l-0.65-0.15l-0.95-0.23
		l7.62-11.569L411.28,504.96z M396.2,528.96l7.149,1.14l0.601,0.091c-0.198,1.117-0.322,2.246-0.37,3.38c0,0.1,0.16,0.229,0.39,0.38
		c-0.091,0.559-0.138,1.124-0.14,1.689c0.12,0.57,3.46,1.79,7.3,2.811c-0.06,0.2-0.11,0.399-0.16,0.58l0,0
		c-3.39-1.78-8.72-2.61-9.34-3.931c-0.62-1.319-18.76-7.67-18.76-7.67s-0.67-0.35-1.811-0.899l4.78,0.899l1.311-0.13
		c2.978,0.744,6.001,1.295,9.05,1.65V528.96z"/>
	<path id="svg_72" fill="#65617D" d="M496.22,574.729c0,0-2.85,17.181-17.279,19.721c-14.431,2.54-62.601,2-62.601,2
		s-27.54-4-37.5-27.23c-9.96-23.229-16.37-32.529-7.83-32.93s54.58,15.55,57.221,15.75C430.87,552.24,498.76,516.7,496.22,574.729z"
		/>
	<path id="svg_73" opacity="0.05" enable-background="new    " d="M496.22,574.729c0,0-2.85,17.181-17.279,19.721
		c-14.431,2.54-62.601,2-62.601,2s-27.54-4-37.5-27.23c-9.96-23.229-16.37-32.529-7.83-32.93s54.58,15.55,57.221,15.75
		C430.87,552.24,498.76,516.7,496.22,574.729z"/>
	<path id="svg_74" fill="#3F3D56" d="M367.03,593.8c0.899,2.25,2.962,3.825,5.37,4.101c0.581,0.039,1.166,0.005,1.739-0.101
		c5.28-0.91,17.681-3,22.051-2.229c2.63,0.489,7.5-0.24,11-0.891c2.3-0.43,4-0.84,4-0.84s-4.061-13.52-4.57-13.92
		c-0.51-0.399-18.33-11.12-18.33-11.12l-14.09-1l0,0c-1.894,0.285-3.603,1.292-4.771,2.811c-1.489,1.8-2.77,4.75-2.85,9.59
		C366.33,592.11,367.03,593.8,367.03,593.8z"/>
	<path id="svg_75" opacity="0.05" enable-background="new    " d="M367.03,593.8c0.899,2.25,2.962,3.825,5.37,4.101
		c-1.382-1.784-2.657-3.647-3.82-5.58l0.07-9.86c-0.584-5.491,1.476-10.933,5.55-14.66l0,0c0,0-7.42,0.51-7.62,12.4
		C366.38,592.09,367.03,593.8,367.03,593.8z"/>
	<path id="svg_76" opacity="0.1" enable-background="new    " d="M428.13,572.29l13.11-10.26l20.63-20.33l-5.59-0.25
		c-0.84,0.529-3.181,2.21-3.271,4.25c-0.1,2.479-5.569,0.17-8.42,1.59c-2.85,1.42-16.77,19.24-19.189,19.13s-4.37-1.24-5.381,0.49
		c-0.023,0.038-0.051,0.075-0.079,0.109L428.13,572.29z"/>
	<path id="svg_77" opacity="0.1" enable-background="new    " d="M369.4,570.63l1.42,0.65c10,4.27,22.25,13.21,23.17,14.84
		c0.56,1,7.689,5.32,13.189,8.56c2.301-0.43,4-0.84,4-0.84s-4.06-13.52-4.569-13.92c-0.511-0.399-18.32-11.12-18.32-11.12l-14.09-1
		l0,0C372.293,568.083,370.571,569.098,369.4,570.63z"/>
	<path id="svg_78" fill="#65617D" d="M341.74,541.5c1.319,3.25,12.399,15.75,12.399,15.75s7,9.15,17,13.42
		c10,4.271,22.261,13.21,23.17,14.84c0.591,1,8.53,5.82,14.12,9.11l1.261,0.729l2.77,1.61l1.47,0.84c0,0,3.4-2.729,6.79-5.479
		c3.391-2.75,6.681-5.44,6.73-5.591c0.1-0.31,1.42-3.76,1.109-4c-0.159-0.1-0.85-1.51-2.14-3.14c-1.362-1.813-3.134-3.28-5.17-4.28
		c-2.965-1.506-5.331-3.974-6.71-7c0,0-0.45-0.319-1.12-0.75c-1.387-0.942-2.937-1.62-4.57-2c-2.239-0.279-6.399-4.85-6.399-4.85
		c-1.641-1.06-3.01-2.487-4-4.17c-1.07-2.23-16.83-13-18.29-14l38.24,24.49l9.149,5.87l13.11-10.261l20.63-20.33l-6.81-0.3
		c-10-0.439-27.83-1.12-30.08-0.609c-1.831,0.428-3.72,0.55-5.591,0.359c0,0-5.079,0.23-8.43-1.54c-3.35-1.77-8.649-2.6-9.26-3.91
		c-0.61-1.31-18.601-7.619-18.601-7.619s-24.489-13-33.229-5.28S340.4,538.25,341.74,541.5z"/>
	<path id="svg_79" fill="#EE8E9E" d="M420.71,466.9l3.15,10.47l4.06,23.58l14.94,1l4.33-7.181l4.31-7.149c0,0,2.69-9.53,4.63-18.75
		c1.71-8.15,2.82-16.07,1-16.93c-1.649-0.761-2.729-3.511-3.439-6.461c-0.091-0.359-0.171-0.729-0.24-1.1
		c-0.501-2.502-0.835-5.034-1-7.58c0,0-31.311-1.63-26.94,11.28c0.784,2.202,1.184,4.522,1.181,6.86
		c-0.003,0.584-0.036,1.168-0.101,1.75C426.147,460.767,424.015,464.471,420.71,466.9z"/>
	<path id="svg_80" fill="#E3E8F4" d="M414.2,465.17l1.12,17.79l2.54,15.14l2.85,7l2.54,38.36c0,0,24.5,2.84,30.46,0
		c0.429-0.179,0.801-0.469,1.08-0.84c7.2-10.87,4.84-42.351,4.84-42.351l2.771-20.359l-1.83-10.55l-4.42-0.471l-3.41-0.359
		c0,0-0.771,0.939-1.87,2.41c-3,4-8.561,11.8-8.19,15.069c0.511,4.471-0.609,9-2.34,9.75c-1.729,0.75-3.149,1.94-3.45,0.721
		c-0.43-1.027-0.538-2.161-0.31-3.25c0.31-1.73-1.32-7-1.32-7s-2.74-6.2-2.54-8.841c0.2-2.64-0.3-5.689-1.12-6.399
		c-0.819-0.71-1.93-1.431-1-4.681c0.931-3.25-4-9.579-4-9.579L414.2,465.17z"/>
	<path id="svg_81" opacity="0.1" enable-background="new    " d="M446.57,509.59l1,30.39l5.87,3.261
		c0.431-0.179,0.805-0.473,1.079-0.851c7.2-10.869,4.841-42.35,4.841-42.35l2.739-20.33l-1.83-10.55l-4.42-0.47
		c1.71-8.15,2.83-16.061,1-16.92c-1.649-0.771-2.739-3.511-3.439-6.461l0,0l-3.18,21.49c0,0,0.27,1.93,0.359,3.93
		c0.131,1.27,0.043,2.552-0.26,3.79c-0.71,1.83-0.2,5.08-0.2,5.08c-1.83,3.23-2.75,9.21-3.19,15
		C446.34,502.28,446.57,509.59,446.57,509.59z"/>
	<path id="svg_82" fill="#3F3D56" d="M453.5,444.8c0,0,5.12,0.641,6.74,2.771s5.899,2.439,5.899,2.439s4.88,1.63,4.771,2
		c-0.11,0.37,1.43,1,4.479,1.83c3.051,0.83,8.13,3.76,8.13,4.48c0,0.72,8,8.63,8,9.449c0,0.82,2.431,3.86,2.131,9.25
		c-0.301,5.391-0.61,12.19,0.609,13.311s0,5.49,0,5.49c-0.668,0.97-0.707,2.24-0.1,3.25c1,1.83-0.21,9.449-0.21,9.449l0.109,7.931
		c0,0-1.119,5,0.2,5.18c1.32,0.18-0.2,2.44-0.2,2.44s-1.119,4.069,0.301,5.899s1.829,9.65,1.829,9.65l21.75,31.61
		c0,0,0.301,5.79-6.609,5.689c-6.91-0.1-6.811,1.32-6.6,2.64c0.209,1.32-1.931,2.75-1.931,2.75s-2.75,1.421-1.12,3.15
		c1.63,1.73,6.301,5.69-1.42,8.33c-0.915-1.253-1.668-2.617-2.24-4.06c-0.653-1.796-1.197-3.629-1.63-5.49c0,0-0.71-7.73-2.13-8.74
		s-1.22-5.899-1.22-5.899s2-4-0.811-5.591c-2.81-1.59-44.109-24.489-44.109-24.489l-1-30.391c0,0-0.71-22.46,3.56-30
		c0,0-0.51-3.25,0.2-5.08s-0.1-7.729-0.1-7.729L453.5,444.8z"/>
	<path id="svg_83" opacity="0.1" enable-background="new    " d="M426.86,457.02c0,0-10.221-2.109-13-0.689
		c-2.78,1.42-8.13,2.54-8.94,3.36c-0.81,0.819-2.85,0.199-4.68,5c-1.83,4.8-2,9.649-4.37,11.89s-3.561,3.76-3.66,5.38
		s0.31,2-0.61,2.54s-2.229,2.65-1.83,3.46c0.4,0.81,21.141,18.7,21.141,18.7s1,6.81,1.93,8.54c0.93,1.729-1,25.51-3.05,27.13
		s13.76,1.47,13.76,1.47s0.72-15.6,1.33-16.42s-0.41-17.479-0.41-17.479s-0.1-14.23,1.221-18c1.319-3.771,1.17-16.261,1.17-16.261
		s1.17-7.5,2.59-9.25S426.86,457.02,426.86,457.02z"/>
	<path id="svg_84" fill="#3F3D56" d="M426.56,456.71c0,0-10.22-2.1-13-0.68c-2.779,1.42-8.13,2.54-8.939,3.35
		c-0.811,0.811-2.851,0.21-4.67,5c-1.82,4.79-2,9.66-4.37,11.89c-2.37,2.23-3.561,3.761-3.66,5.391s0.3,2-0.61,2.54
		c-0.909,0.54-2.239,2.64-1.829,3.46c0.409,0.819,21.14,18.7,21.14,18.7s1,6.81,1.93,8.529c0.931,1.721-1,25.511-3.05,27.141
		s13.72,1.47,13.72,1.47s0.71-15.6,1.32-16.41c0.61-0.81-0.41-17.479-0.41-17.479s-0.1-14.23,1.22-18
		c1.32-3.771,1.181-16.261,1.181-16.261s1.16-7.5,2.58-9.25S426.56,456.71,426.56,456.71z"/>
	<path id="svg_85" opacity="0.1" enable-background="new    " d="M425.48,448.1c0.783,2.202,1.183,4.522,1.18,6.86
		c10.281,3.062,21.324-1.299,26.74-10.56c-0.502-2.502-0.836-5.034-1-7.58C452.4,436.82,421.11,435.19,425.48,448.1z"/>
	<path id="svg_86" fill="#EE8E9E" d="M410.04,432.04c0.026,12.824,10.443,23.199,23.267,23.173
		c12.824-0.026,23.199-10.443,23.173-23.267c-0.025-12.824-10.442-23.199-23.267-23.174c-10.959,0.022-20.411,7.704-22.673,18.428
		C410.205,428.791,410.037,430.414,410.04,432.04z"/>
	<path id="svg_87" fill="#3F3D56" d="M395.1,485.91l-5.59,1.729c0.269,1.135-0.174,2.319-1.12,3c-0.964,0.685-1.502,1.821-1.42,3
		c0,0-0.609,2.24-2,2.75c-1.39,0.511-2.33,3.86-2.33,3.86l-4.68,5.39c0,0-1.729,1.42-1.42,2.13s-1.83,0.91-1.83,0.91l1.12,18.101
		l9.65,1.819l6-0.609l4.88-1.82l4.27-2.55l1.93-5l8.53-13L395.1,485.91z"/>
	<path id="svg_88" fill="#EE8E9E" d="M376.09,510.2c0,0-12.399-17.891-21.649-8.23s3.76,25.301,6.81,24.79
		c3.05-0.51,17.59-1.319,17.59-1.319L376.09,510.2z"/>
	<path id="svg_89" opacity="0.1" enable-background="new    " d="M410.54,427.2c0.642,0.054,1.244,0.325,1.71,0.77
		c0.78,0.83,0.82,2.3,1.85,2.82c0.382,0.162,0.802,0.21,1.21,0.14c2.7-0.39,4.261-3.439,6.86-4.279
		c1.518-0.383,3.119-0.245,4.55,0.39c0.58,0.195,1.098,0.54,1.5,1c0.87,1.13,0.261,2.78,0.66,4.14
		c0.561,1.891,2.811,2.641,4.771,2.88c1.96,0.24,4.149,0.391,5.449,1.86c0.874,1.11,1.237,2.538,1,3.93
		c-0.114,0.48-0.114,0.98,0,1.46c0.54,1.521,3.181,1.301,3.87,0.091c0.5-0.87,0.351-1.601,1.53-1.841
		c0.854-0.071,1.711,0.076,2.49,0.431c2.068,0.72,4.25,1.059,6.439,1c5.471-11.636,0.474-25.503-11.162-30.974
		c-11.635-5.471-25.502-0.473-30.973,11.162c-0.762,1.619-1.333,3.321-1.705,5.071L410.54,427.2z"/>
	<path id="svg_91" opacity="0.1" enable-background="new    " d="M427.52,572.9l13.11-10.261l20.63-20.33l-6.81-0.3
		c-0.8,0.719-1.312,1.703-1.44,2.771c-0.1,2.489-5.569,0.18-8.42,1.6c-2.85,1.42-16.77,19.24-19.189,19.12s-4.37-1.229-5.381,0.49
		l-0.079,0.12c-0.406,0.464-0.949,0.786-1.551,0.92L427.52,572.9z"/>
	<path id="svg_92" fill="#65617D" d="M401.09,572.19l6.59,21l1,3.3l3.141-0.86l6.92-1.9l30.8-8.46c3.87-0.184,7.654-1.207,11.09-3
		c5.821-3.268,12.486-4.723,19.14-4.18c4.07,0.38,8.601-1.37,12.36-8.32c0,0,8.53-25.199-13-32.409s-22.58,3.83-22.58,3.83
		l-0.29,0.18c-0.84,0.53-3.18,2.21-3.27,4.25c-0.101,2.479-5.57,0.17-8.42,1.59c-2.851,1.42-16.75,19.32-19.17,19.21
		s-4.37-1.24-5.381,0.49c-0.023,0.038-0.051,0.075-0.079,0.109c-0.75,1-3,1.28-4.511,1.32c-0.819,0-1.41,0-1.41,0l-0.189,0.061
		l-1.561,0.46L401.09,572.19z"/>
	<path id="svg_93" opacity="0.1" enable-background="new    " d="M402.8,531.34l3.17,0.51l1.32-13.109c0,0-1.45-0.22-3.271-0.641
		C404.5,519.92,403.4,527,402.8,531.34z"/>
	<path id="svg_94" opacity="0.1" enable-background="new    " d="M485.9,470.08c0,0,9.449-2.74,7.119,24.09
		c-2.329,26.83-19.819,43.8-19.819,43.8s-20.13,8.84-29.17,7.42s-15.63-1.729-15.63-1.729c-2.85-1.436-5.965-2.267-9.15-2.44
		c-5.08-0.2-15.75-3.35-16-4.37c-0.25-1.02,2.65-15.949,1.43-17.069c0,0,14.23,0.58,15.65,1.609c1.42,1.03,3.45,0.29,5,0
		s6.2-4.35,15.45-0.8c0,0,3.149,0.311,4.37-0.51c0.997-0.464,2.132-0.535,3.18-0.2c0.782-0.268,1.523-0.645,2.2-1.12
		c0.31-0.399,2.75,0,2.75,0c0.536,0.261,1.183,0.037,1.443-0.499c0.032-0.067,0.059-0.138,0.076-0.211
		c0.319-0.831,0.803-1.589,1.42-2.229c0,0,2.75-15.45,7.931-21.24c0.847-0.731,1.268-1.841,1.119-2.95
		C464.86,490,473.7,466.8,485.9,470.08z"/>
	<path id="svg_95" opacity="0.1" enable-background="new    " d="M412.25,568.85l13.42,16.25l0.09-0.1c0.101-0.3,1.42-3.76,1.11-4
		c-0.311-0.24-2.64-5.29-7.32-7.42c-2.37-1.164-4.361-2.978-5.74-5.23L412.25,568.85z"/>
	<path id="svg_96" opacity="0.1" enable-background="new    " d="M412.4,596.96l1.47,0.84c0,0,3.399-2.729,6.79-5.479
		c3.39-2.75,6.68-5.44,6.729-5.591c0.101-0.31,1.42-3.76,1.11-4c-0.16-0.1-0.85-1.51-2.14-3.14c-9.101-2.55-3.301,3.771-2.53,4.061
		c0,0-11.08-2.54-11.69,9.52C412.059,594.439,412.146,595.714,412.4,596.96z"/>
	<path id="svg_97" fill="#3F3D56" d="M423.65,602.07l1.939,1.12l19.61,0.51c2.199,1.336,4.523,2.455,6.939,3.34
		c0.327,0.1,0.662,0.173,1,0.22c1.82,0.143,3.646,0.176,5.471,0.101c1.5,0,2.659-0.101,2.659-0.101s-0.93-24.739-1.63-27.34
		c-0.33-1.25-2-1-3.6-0.35c-1.219,0.492-2.393,1.088-3.51,1.779c0,0-8.33,0.801-9.66,1.521s-5.08-0.41-7.42,0s-6.5-2.75-6.5-2.75
		c-11.38-3.76-5,3.25-4.17,3.56c0,0-11.07-2.54-11.681,9.521C412.49,605.26,423.65,602.07,423.65,602.07z"/>
	<path id="svg_98" fill="#565387" d="M452.01,592.52c0.21,5.12,4.2,11.48,6.59,14.841c1.5,0,2.66-0.101,2.66-0.101
		s-0.93-24.739-1.63-27.34c-0.33-1.25-2-1-3.6-0.35C454.06,583.26,451.84,588.39,452.01,592.52z"/>
	<path id="svg_99" opacity="0.1" enable-background="new    " d="M452.01,592.52c0.21,5.12,4.2,11.48,6.59,14.841
		c1.5,0,2.66-0.101,2.66-0.101s-0.93-24.739-1.63-27.34c-0.33-1.25-2-1-3.6-0.35C454.06,583.26,451.84,588.39,452.01,592.52z"/>
	<path id="svg_100" opacity="0.05" enable-background="new    " d="M448.66,593.2c1.35,4.939,1.33,10.49,3.479,13.84
		c0.327,0.1,0.662,0.173,1,0.22c1.82,0.143,3.646,0.176,5.471,0.101c1.5,0,2.659-0.101,2.659-0.101s-0.93-24.739-1.63-27.34
		c-0.33-1.25-2-1-3.6-0.35c-1.219,0.492-2.393,1.088-3.51,1.779C452.53,581.35,446.93,586.87,448.66,593.2z"/>
	<path id="svg_101" opacity="0.1" enable-background="new    " d="M380.99,543.06c0,0,9.74,3.16,18,14.391L380.99,543.06z"/>
	<g id="svg_102" opacity="0.1">
		<path id="svg_103" d="M460.16,421.1l-0.061,0.221c-0.094,0.29-0.207,0.574-0.34,0.85
			C459.859,421.802,459.993,421.443,460.16,421.1z"/>
		<path id="svg_104" d="M405.04,416.17c0.171-0.694,0.423-1.364,0.75-2c-0.05,0.17-0.1,0.351-0.14,0.53
			c-0.38,2.25-0.226,4.56,0.449,6.74c0.145,1.172,0.731,2.245,1.641,3c1.51,1,3.85,0.13,5.08,1.43c0.79,0.83,0.83,2.31,1.85,2.82
			c0.382,0.173,0.809,0.222,1.22,0.14c2.7-0.38,4.261-3.43,6.86-4.271c1.514-0.391,3.115-0.253,4.54,0.391
			c0.586,0.188,1.108,0.534,1.51,1c0.87,1.12,0.26,2.78,0.66,4.14c0.56,1.88,2.81,2.63,4.76,2.88s4.15,0.38,5.46,1.86
			c0.883,1.105,1.247,2.537,1,3.93c-0.109,0.478-0.109,0.974,0,1.45c0.54,1.53,3.181,1.3,3.87,0.1c0.5-0.88,0.351-1.6,1.53-1.85
			c0.853-0.067,1.709,0.08,2.49,0.43c2.11,0.731,4.337,1.07,6.569,1c1.837,0.027,3.637-0.519,5.15-1.56
			c0.653-0.528,1.19-1.186,1.58-1.93c-0.34,1.355-1.108,2.565-2.19,3.449c-1.509,1.051-3.312,1.597-5.149,1.561
			c-2.233,0.07-4.46-0.269-6.57-1c-0.779-0.354-1.637-0.502-2.49-0.43c-1.18,0.239-1,1-1.529,1.84c-0.69,1.21-3.33,1.43-3.87-0.09
			c-0.11-0.48-0.11-0.979,0-1.46c0.247-1.394-0.117-2.825-1-3.931c-1.311-1.47-3.5-1.609-5.46-1.859s-4.2-1-4.761-2.881
			c-0.399-1.359,0.21-3-0.659-4.14c-0.399-0.464-0.919-0.81-1.5-1c-1.43-0.639-3.031-0.779-4.551-0.4
			c-2.6,0.841-4.159,3.891-6.859,4.28c-0.412,0.07-0.835,0.021-1.221-0.14c-1-0.521-1.06-2-1.85-2.82
			c-1.229-1.31-3.57-0.47-5.08-1.439c-0.909-0.755-1.496-1.828-1.64-3C404.81,420.75,404.655,418.431,405.04,416.17z"/>
	</g>
	<path id="svg_105" opacity="0.1" enable-background="new    " d="M461.73,497.52c-1.86,2.511-4,4.841-5.631,7.5
		c-1.783,2.602-2.652,5.722-2.47,8.87c1.7-1.75,2.48-4.17,3.561-6.359c1.819-3.721,4.54-6.87,6.829-10.28
		c0.44-0.65,3.25-4.42,1.83-4.6C464.68,492.5,462.4,496.66,461.73,497.52z"/>
	<path id="svg_106" fill="#C1D5FF" d="M410.28,456.479L430.65,495c0.609,1.14-1.051,3.21-3.7,4.62l-101.67,53.77
		c-2.65,1.4-5.3,1.61-5.9,0.46l-20.37-38.51c-0.609-1.149,0.92-3.46,3.57-4.859l101.67-53.771
		C406.91,455.3,409.68,455.33,410.28,456.479z"/>
	
		<rect id="svg_109" x="350.885" y="486.88" transform="matrix(-0.884 0.4675 -0.4675 -0.884 945.5995 741.244)" fill="#3C74F3" width="59.91" height="2.11"/>
	
		<rect id="svg_110" x="353.297" y="491.444" transform="matrix(-0.884 0.4675 -0.4675 -0.884 952.2777 748.7159)" opacity="0.2" fill="#3C74F3" enable-background="new    " width="59.91" height="2.11"/>
	
		<rect id="svg_111" x="355.704" y="495.99" transform="matrix(-0.884 0.4675 -0.4675 -0.884 958.9369 756.1593)" opacity="0.2" fill="#3C74F3" enable-background="new    " width="59.911" height="2.11"/>
	
		<rect id="svg_112" x="358.116" y="500.554" transform="matrix(-0.884 0.4675 -0.4675 -0.884 965.6151 763.6312)" opacity="0.2" fill="#3C74F3" enable-background="new    " width="59.911" height="2.11"/>
	<path id="svg_113" opacity="0.2" fill="#3C74F3" enable-background="new    " d="M324.93,511.02
		c-6.935,3.663-9.587,12.254-5.925,19.188c2.23,4.222,6.433,7.041,11.186,7.502l-1.12-2.12c-0.765-1.44-0.336-3.225,1-4.16
		c2.592,1.718,6.085,1.01,7.803-1.582c0.598-0.901,0.923-1.956,0.937-3.038c1.521-0.574,3.232,0.067,4,1.5l1.15,2.181
		c3.824-6.847,1.375-15.498-5.472-19.322c-4.208-2.351-9.32-2.406-13.578-0.148H324.93z M338.56,523.43
		c0.004,0.103-0.013,0.205-0.05,0.3c-0.069,0.132-0.173,0.242-0.3,0.32l-0.25,0.141c0.634,3.049-1.324,6.035-4.374,6.669
		c-3.05,0.635-6.036-1.324-6.67-4.374c-0.089-0.426-0.127-0.86-0.116-1.295h-0.069c-0.938-0.389-1.401-1.448-1.051-2.4
		c0.222-0.353,0.503-0.664,0.83-0.92c0.919-0.896,1.475-2.1,1.561-3.38c0.142,0.247,0.265,0.505,0.37,0.77
		c0.18-0.67,0.869-1.068,1.54-0.89c0.23,0.111,0.472,0.202,0.72,0.27c0.223,0.002,0.444-0.043,0.649-0.13l1.33-0.51
		c0.84-0.557,1.962-0.402,2.62,0.36c0.817,0.654,1.563,1.395,2.22,2.21C338.168,521.385,338.533,522.389,338.56,523.43
		L338.56,523.43z"/>
	<path id="svg_114" fill="#EE8E9E" d="M368.06,513.96c-0.1,13.41,27.65,16.26,27.65,16.26l7.09,1.12l3.17,0.51l1.32-13.109
		c0,0-1.45-0.22-3.271-0.641c-2.68-0.63-6.159-1.71-6.89-3.229C395.91,512.33,368.16,500.54,368.06,513.96z"/>
	<path id="svg_115" fill="#3F3D56" d="M485.65,468.02c0,0,9.449-2.739,7.119,24.091c-2.329,26.83-19.819,43.8-19.819,43.8
		s-20.13,8.84-29.17,7.42s-15.65-1.73-15.65-1.73c-2.849-1.436-5.964-2.266-9.149-2.439c-5.08-0.2-15.75-3.351-16-4.37
		c-0.25-1.021,2.649-16,1.43-17.07c0,0,14.229,0.58,15.649,1.61s3.45,0.29,5,0c1.551-0.29,6.2-4.36,15.45-0.8
		c0,0,3.15,0.31,4.37-0.511c0.997-0.463,2.133-0.534,3.18-0.199c0.783-0.268,1.523-0.645,2.2-1.12c0.311-0.4,2.75,0,2.75,0
		c0.528,0.265,1.172,0.05,1.436-0.479c0.037-0.073,0.065-0.151,0.085-0.231c0.32-0.833,0.803-1.595,1.42-2.24
		c0,0,2.75-15.44,7.93-21.24c0.849-0.727,1.27-1.833,1.12-2.939C464.61,487.94,473.46,464.8,485.65,468.02z"/>
	
		<linearGradient id="svg_127_1_" gradientUnits="userSpaceOnUse" x1="-788.8452" y1="6.6011" x2="-788.8452" y2="448.7211" gradientTransform="matrix(224.0093 -16.7817 -8.6056 -436.8408 184226 327479.5313)">
		<stop  offset="0" style="stop-color:#808080;stop-opacity:0.25"/>
		<stop  offset="0.54" style="stop-color:#808080;stop-opacity:0.12"/>
		<stop  offset="1" style="stop-color:#808080;stop-opacity:0.1"/>
	</linearGradient>
	<path id="svg_127" fill="url(#svg_127_1_)" d="M924.97,594.22c-1.38-5-2.279-9.38-2.279-9.38s0.06-5.49-2.561-9.51l-0.05-1.37l0,0
		l-0.4-10.16c0.63-1.864,1.42-3.671,2.36-5.399c1.7-3.25-0.57-14.851-0.57-14.851s-7.399-16.189-6.149-26.68
		s-15.67-45.79-15.67-45.79c-0.031-3.456,0.328-6.904,1.069-10.28c0.133-0.712,0.169-1.438,0.11-2.16
		c0.005-0.086,0.005-0.173,0-0.26c0,0,0,0,0,0.08c-0.5-6.87-6.43-19.55-6.43-19.55l-0.221-24.61c0,0,2.92-14.63-3.5-33.859
		c-2.239-6.711-3.71-12.101-4.67-16.26c-0.109-0.471-0.22-0.92-0.31-1.36c11.59-2.22,20.43-4,20.43-4s-7.84-28-12.6-32.8
		c-4.76-4.8-9-20.19-9-20.19s-3.141-19.89,0.47-25.87s3.75-16.16,3.75-16.16s8.52-6.71,9.51-9.58c0.99-2.87,2.57-9.31,2.44-12.66
		s-1.34-6.33-1-8.11c0.34-1.78-2.891-8.39-1.55-11.63c0.344-0.993,0.503-2.04,0.47-3.09v-0.13c-0.096-2.782-0.461-5.548-1.09-8.26
		c-2.616-2.045-5.636-3.514-8.86-4.31l-0.22-0.75l-0.57-2c-0.3-0.18-0.59-0.34-0.88-0.48v-0.72l-0.19-2.87l1.12-6.51
		c2.271-11.33-12.779-12.43-12.779-12.43c-0.968-1.687-2.529-2.953-4.381-3.55c-3.06-1,0.141,16.91,1.601,18
		c1.09,0.82,4.58,6.32,6.26,9l0,0l0.28,0.44c-0.238,0.233-0.459,0.484-0.66,0.75l0.72,3.87l0.11,0.6
		c-0.949,1.267-1.701,2.669-2.23,4.16c0,0,2.851,2.9,2.431,6.28c-0.42,3.38,1.13,7.52,1.21,7.74c-0.17-0.18-2.181-2.19-4.08-1.6
		c-1.9,0.59-7.23,2.4-7.23,2.4s-4,0.86-3.59,1.73s-2.55,4.88-2.55,4.88l-11.2-9.82c-0.12-0.3-0.24-0.6-0.35-0.91
		c-0.503-1.447-0.874-2.937-1.11-4.45c1.166-0.325,2.306-0.736,3.41-1.23c1.119-0.423,2.121-1.109,2.92-2c1-1.33,1.18-3.1,1.56-4.72
		c0.73-3.18,2.461-6.05,3.66-9.09c1.995-5.107,2.505-10.675,1.471-16.06c-0.239-1.667-0.87-3.253-1.841-4.63
		c-1.859-2.36-5.09-3.23-7.489-5.07c-2.4-1.84-4-4.74-6.78-6.09c-2.5-1.22-5.48-1-8.22-0.39c-5.374,1.089-10.495,3.175-15.101,6.15
		c-1.529,1-3.22,2.14-5,1.88c-1.56-0.22-2.739-1.42-3.79-2.57c-0.004-0.05-0.004-0.1,0-0.15l-0.13-0.13
		c-1.041,2.582-1.505,5.36-1.359,8.14c0,0.43,0,0.86,0.1,1.29c0,0.15,0,0.3,0,0.45c0.01,0.126,0.01,0.254,0,0.38l0,0
		c0.005,0.195-0.016,0.39-0.06,0.58c-0.222,0.563-0.563,1.072-1,1.49c-0.314,0.389-0.596,0.804-0.841,1.24
		c0-0.15,0.08-0.3,0.13-0.45c-0.659,1.029-1.007,2.228-1,3.45c-0.026,0.891,0.297,1.756,0.9,2.41c0.562,0.508,1.172,0.96,1.82,1.35
		c-0.175,1.191-0.238,2.396-0.19,3.6c0.321,7.31,4.44,13.92,10.86,17.43c0.14,0.3,0.27,0.6,0.41,0.91c1.52,3.58,2.72,7.77,2.41,11.7
		c0,0.29-0.061,0.58-0.101,0.86s-0.26,0.31-0.37,0.47l0,0c0,0-17.83,0.86-22.17-2.78s-10.24,9.69-10.24,9.69s-6.34,1.49-7.67,0.3
		c-1.33-1.19-8.779,0.16-8.779,0.16c-3.162-2.608-7.2-3.91-11.29-3.64c-2.572-1.799-5.387-3.224-8.36-4.229l0,0l-0.21-0.061l0,0
		c-1.29-0.414-2.656-0.536-4-0.36c0,0-9.05-6.91-11.76-10.7s-15.44-17.75-15.5-17.82l-0.07-0.69l-0.22-2.1
		c-0.359,0.073-0.724,0.12-1.09,0.14l-0.271-0.72c-0.774-2.022-1.718-3.976-2.82-5.84c0,0-0.1-2.66,0.65-3.35
		c0.75-0.69-0.72-10.38-0.72-10.38s-8.61-18.17-15.16-4.1c0,0-13,9.44-1.41,19.39c0,0,4.57,2,5.271,3.7c0.46,1.1,2.1,4.16,3.2,6.19
		c0.18,0.34,0.35,0.64,0.489,0.91l-0.12,0.11l0.23,1.73l0.09,0.67c-2.06,1.28-3.45,2.53-3.07,3.42
		c0.687,1.504,1.178,3.091,1.46,4.72c0,0,16.28,18.85,18.61,27.09c0,0,42.6,23.15,56.37,24.39l-1.8,12.44
		c-0.227,3.362-0.279,6.733-0.16,10.1c0.28,2.65-1.08,14.74-1.08,14.74s-1.7,17.77-3.61,20.331c-1.91,2.56-1.149,13.14-1.149,13.14
		c-0.286,5.099-1.009,10.164-2.16,15.14c-1.75,6.79,0,15.051,0,15.051s-6.33,16.18,9.88,4.75c0,0,8.14-0.82,17.52-1.5
		c0,0.31,0,0.619,0,0.939c0,1.21,0.061,2.52,0.101,3.9c0.22,9.119,0.649,21.68,1.43,31.17c1.39,16.77,7.78,49.77,7.78,49.77
		l0.64,16.7c-0.264,1.582-0.361,3.188-0.29,4.79c0.086,5.902,1.855,11.658,5.101,16.59l1.71,11.08c0,0,3.279,7.23,3.51,11.61
		c0.002,0.358-0.028,0.717-0.09,1.069c-0.093,0.565-0.12,1.14-0.08,1.71c0,5.061,3.54,17.051,3.54,17.051s0.649,12.189,2.5,12.83
		c1.59,0.54-1.811,7.109-2.83,9c-0.032-0.115-0.06-0.232-0.08-0.351c-0.13,0.25-0.21,0.38-0.21,0.38
		c-0.338,1.001-0.49,2.055-0.45,3.11c-0.149,1.709,0.705,3.351,2.19,4.21c3.55,2,5.479,3.68,2.569,4.5
		c-1.08,0.213-2.148,0.483-3.2,0.81c0-0.14-0.119-0.279-0.17-0.409c-0.826,0.386-1.287,1.282-1.12,2.18
		c0.089,1.446,0.517,2.851,1.25,4.1c3.181,6.431,5.301,8.83,5.301,8.83l1.39-0.21c-0.188,0.541-0.44,1.059-0.75,1.54
		c-0.507,0.785-1.192,1.44-2,1.91c-0.739,0.504-1.578,0.845-2.46,1c-2.005,0.136-3.855,1.126-5.08,2.72
		c-1.729,2.42-2.75,5.68,1,8.36l13.24,4c0,0,22.58,2.06,21.189-2.94c-1.39-5-2.279-9.38-2.279-9.38
		c-0.03-3.084-0.772-6.12-2.17-8.87c-0.25-0.449-0.53-0.88-0.841-1.29l0.79-0.12c0,0,1.21-11.199,3.32-13.409
		c0.49-0.5,0.59-0.88,0.46-1.17c0.2-0.62-0.38-1-1.13-1.12c0,0.14-0.09,0.29-0.14,0.439c-0.724-0.125-1.457-0.178-2.19-0.16
		c0,0-1-5.8,1.34-8c0.368-0.503,0.51-1.138,0.391-1.75c-0.014-0.798-0.128-1.591-0.341-2.359c-0.029,0.043-0.053,0.09-0.069,0.14
		c-1.41-5.25-5.78-13.51-5.78-13.51s-0.38-5.3,1-7.47s-1.3-28.82-1.3-28.82s0.06-12.93-1.82-18.87
		c-1.88-5.939,1.51-13.16,1.51-13.16s0-0.14-0.06-0.39v-0.09c0,0-0.11-0.79-0.29-2c0.004,0.043,0.004,0.087,0,0.13
		c-0.49-3.4-1.43-9.561-2-12.41c-0.89-4-0.72-23.52-0.72-23.52l3-8.44l6.399,14.1l6.95,18.86c0,0,3.23,3.91,3.46,8
		c0,0.2,0,0.4,0,0.6c-0.024,0.427-0.024,0.854,0,1.28c-0.014,2.411,0.739,4.765,2.15,6.72c0,0,2,9,4.64,11.16
		c2.641,2.16,2.82,6.62,2.82,6.62s3.61,13,5.16,15.21c1.3,1.89,1.569,7.21,1.62,8.84l0,0c0,0.3,0,0.48,0,0.48s0.619,4.66,0.75,8.59
		c0,0.479,0,1,0,1.4c0,0,0-0.07,0-0.101c0.033,1.07-0.054,2.14-0.261,3.19c0,0.06,0,0.12,0,0.189c0-0.233,0-0.453,0-0.659
		c-0.54,2.69-0.748,5.438-0.62,8.18c0.101,4.71,1,10.25,4,13.41c5.15,5.47,8.23,4.64,8.23,4.64s-2.1,7.16-5,8.69
		c-0.109,0.061-0.213,0.131-0.311,0.21c0-0.13-0.06-0.271-0.079-0.4c-0.617,0.74-0.893,1.706-0.761,2.66
		c-0.09,3.12,2.07,8.1,4,10.35c0.716,0.649,1.582,1.109,2.521,1.34c-0.141,0.111-0.288,0.215-0.44,0.311
		c-0.322,0.189-0.656,0.36-1,0.51c-0.467,0.224-0.966,0.373-1.479,0.44c-2.004,0.142-3.852,1.131-5.08,2.72
		c-1.72,2.42-2.75,5.67,1,8.36l13.24,4C903.86,597.271,926.4,599.22,924.97,594.22z"/>
	<path id="svg_128" fill="#2D293D" d="M839.47,605.87l-12.819-4c-3.591-2.69-2.601-5.95-0.931-8.37
		c1.167-1.572,2.958-2.562,4.91-2.71c0.856-0.156,1.669-0.498,2.38-1c0.791-0.469,1.453-1.125,1.931-1.91
		c0.868-1.498,1.305-3.208,1.26-4.939c0,0,13.72-4.601,17.68-0.681c0.703,0.713,1.302,1.521,1.78,2.4
		c1.356,2.766,2.078,5.8,2.109,8.88c0,0,0.881,4.38,2.221,9.38S839.47,605.87,839.47,605.87z"/>
	<path id="svg_129" fill="#2D293D" d="M901.11,597.26l-12.811-4c-3.6-2.68-2.609-5.939-0.939-8.35
		c1.159-1.58,2.955-2.571,4.909-2.71c0.497-0.077,0.979-0.229,1.431-0.45c0.345-0.147,0.679-0.317,1-0.51
		c3.47-2.08,3.189-6.851,3.189-6.851s13.73-4.6,17.681-0.68c0.532,0.527,1.002,1.115,1.399,1.75c2.54,4,2.49,9.521,2.49,9.521
		s0.88,4.399,2.22,9.39S901.11,597.26,901.11,597.26z"/>
	<path id="svg_130" opacity="0.1" enable-background="new    " d="M853.88,582.3c0.703,0.713,1.302,1.521,1.78,2.4l0,0l-20.72,3.21
		c0.868-1.498,1.305-3.209,1.26-4.94C836.2,582.97,849.92,578.38,853.88,582.3z"/>
	<path id="svg_131" opacity="0.1" enable-background="new    " d="M916.92,575.44l0.15,3.899c-3,5.46-18.721,4.891-23.37,2.391
		c0.345-0.147,0.679-0.318,1-0.511c3.47-2.08,3.189-6.85,3.189-6.85s13.73-4.6,17.681-0.68
		C916.085,574.221,916.537,574.808,916.92,575.44z"/>
	<path id="svg_132" fill="#65617D" d="M918.75,558.56c-0.909,1.732-1.669,3.539-2.27,5.4l0.529,14c-3.31,6-21.77,4.74-24.37,1.65
		c-2.6-3.09-5.569-11.29-2.79-12.82c2.78-1.53,4.801-8.68,4.801-8.68s-3,0.819-8-4.65s-4.061-18.08-3.29-21.12
		c0.77-3.04-0.511-13.09-0.511-13.09s-0.09-7.08-1.59-9.32c-1.5-2.239-5-15.21-5-15.21s-0.17-4.42-2.729-6.63
		c-2.561-2.21-4.5-11.16-4.5-11.16c-1.536-2.196-2.265-4.857-2.061-7.529c0.36-4.44-3.359-9.08-3.359-9.08l-6.75-18.86l-6.21-14.11
		l-2.851,8.45c0,0-0.14,19.48,0.73,23.521s2.34,14.779,2.34,14.779s-3.271,7.21-1.44,13.16s1.79,18.88,1.79,18.88
		s2.61,26.63,1.28,28.811c-1.33,2.18-1,7.47-1,7.47s7.85,15.28,5.63,17.49s-1.29,8-1.29,8s5-0.19,2.92,2
		c-2.08,2.189-3.21,13.41-3.21,13.41l-21.28,3.3c0,0-2.06-2.4-5.14-8.84c-3.08-6.44,0.311-5.851,3.13-6.67
		c2.82-0.82,1-2.511-2.49-4.511c-3.489-2-1.68-6.84-1.68-6.84s4.79-8.86,3-9.5s-2.439-12.83-2.439-12.83s-4.091-14.359-3.36-18.29
		c0.73-3.93-3.34-13.149-3.34-13.149l-1.66-11.091c-4.028-6.171-5.696-13.588-4.7-20.89l-0.62-17.21c0,0-6.229-33-7.58-49.82
		c-0.87-10.739-1.31-25.42-1.51-34.59c-0.11-5.14-0.149-8.55-0.149-8.55l76.069-10.89c0.267,3.811,0.875,7.589,1.82,11.29
		c0.939,4.159,2.37,9.55,4.55,16.26c6.23,19.24,3.43,33.87,3.43,33.87l0.24,24.6c0,0,7.35,16.181,6.15,21.9
		c-0.708,3.39-1.043,6.847-1,10.31c0,0,16.41,35.311,15.22,45.8c-1.19,10.49,6,26.69,6,26.69S920.4,555.31,918.75,558.56z"/>
	<path id="svg_133" opacity="0.05" enable-background="new    " d="M871.53,468.12l23.13-4
		C894.66,464.12,882.01,478.08,871.53,468.12z"/>
	<path id="svg_134" opacity="0.1" enable-background="new    " d="M890.4,441.54c0,0,1.109,8.189-3.811,11.479
		C886.62,453.02,895.59,451.26,890.4,441.54z"/>
	<path id="svg_135" opacity="0.1" enable-background="new    " d="M888,415.431c0,0-18.82,16.749-26,15.699S888,415.431,888,415.431
		z"/>
	<path id="svg_136" opacity="0.1" enable-background="new    " d="M843,476.8c0,0-14.63,3.92-14.84,9.86
		C827.95,492.6,843,476.8,843,476.8z"/>
	<path id="svg_137" opacity="0.05" enable-background="new    " d="M849.09,550.35c0,0-20.689,4.69-14.689,7.11
		s15.83,4.18,15.83,4.18S856.96,561.729,849.09,550.35z"/>
	<g id="svg_138" opacity="0.05">
		<path id="svg_139" d="M830.4,561.8c-1.077-0.632-1.812-1.716-2-2.95c-0.12,0.24-0.2,0.38-0.2,0.38s-1.76,4.841,1.68,6.841
			c0.4,0.229,0.771,0.45,1.12,0.67c0.62-0.141,1.28-0.25,1.92-0.44C835.66,565.53,833.79,563.8,830.4,561.8z"/>
		<path id="svg_140" d="M857.17,559.39c0.55-0.55,0.48-1.909,0.061-3.64c-0.797,1.597-1.143,3.381-1,5.16
			C856.428,560.341,856.749,559.821,857.17,559.39z"/>
		<path id="svg_141" d="M850.57,471.55c-0.69,2.122-1.08,4.33-1.16,6.561c0.341-1.552,0.826-3.068,1.45-4.53
			C850.86,473.58,850.75,472.8,850.57,471.55z"/>
		<path id="svg_142" d="M897.98,460.43c0.12-0.639,0.16-1.291,0.119-1.939c-0.21,1.33-0.35,2.56-0.439,3.64
			C897.76,461.58,897.86,461.01,897.98,460.43z"/>
		<path id="svg_143" d="M852.49,534.42c0.355-1.281,0.48-2.615,0.37-3.94c-0.591,1.6-0.87,3.297-0.82,5
			C852.147,535.11,852.298,534.754,852.49,534.42z"/>
		<path id="svg_144" d="M858.15,567.6c-0.961,3.607-1.63,7.286-2,11l-21.28,3.301c0,0-2.05-2.4-5.13-8.83
			c-0.271-0.57-0.49-1.08-0.67-1.54c-1.261,0.64-1.71,2,0.12,5.81c3.079,6.43,5.14,8.83,5.14,8.83l21.28-3.3
			c0,0,1.159-11.2,3.2-13.4C859.8,568.34,859.11,567.8,858.15,567.6z"/>
		<path id="svg_145" d="M828.68,536.93c0,0,0.65,12.2,2.44,12.841l0,0c0.82-2.051,1.34-4,0.54-4.271
			c-1.8-0.64-2.44-12.84-2.44-12.84s-4.1-14.36-3.359-18.28c0.739-3.92-3.341-13.15-3.341-13.15l-1.67-11.09
			c-4.027-6.171-5.696-13.588-4.699-20.89l-0.66-17.15c0,0-6.23-32.999-7.58-49.819c-0.87-10.74-1.311-25.43-1.51-34.59
			c0-1.66-0.061-3.131-0.091-4.371l-0.609,0.091c0,0,0,3.399,0.16,8.55c0.199,9.16,0.64,23.85,1.5,34.59
			c1.359,16.771,7.59,49.82,7.59,49.82l0.66,17.149c-0.997,7.303,0.672,14.719,4.699,20.891l1.66,11.09c0,0,4.08,9.22,3.34,13.149
			C824.57,522.58,828.68,536.93,828.68,536.93z"/>
		<path id="svg_146" d="M893.17,574.8c-1.828-2.446-3.092-5.268-3.7-8.26c-2.109,2,0.69,9.6,3.16,12.53
			c2.601,3.09,21.061,4.33,24.37-1.641l-0.13-3.37C912.28,579,895.63,577.74,893.17,574.8z"/>
		<path id="svg_147" d="M919.28,553.8c-0.909,1.732-1.669,3.539-2.271,5.4l0.09,2.479c0.37-0.92,0.9-2.149,1.641-3.609
			c0.506-1.412,0.71-2.914,0.6-4.41L919.28,553.8z"/>
		<path id="svg_148" d="M893.6,557.59c0.624-1.386,1.151-2.813,1.58-4.27c0,0-3,0.819-8-4.65c-3.63-4-4.13-11.75-3.83-16.85
			c-0.77,3-1.699,15.649,3.29,21.12C889.93,556.52,892.33,557.4,893.6,557.59z"/>
		<path id="svg_149" d="M882.87,518.74c0.443,3.47,0.697,6.962,0.76,10.46c0.064-0.556,0.164-1.107,0.3-1.65
			c0.771-3-0.51-13.08-0.51-13.08s-0.1-7.08-1.6-9.33s-5-15.21-5-15.21s-0.17-4.42-2.74-6.62c-2.57-2.199-4.5-11.159-4.5-11.159
			c-1.535-2.201-2.263-4.864-2.061-7.54c0.36-4.44-3.359-9.07-3.359-9.07l-6.76-18.87l-6.21-14.1l-2.86,8.43c0,0,0,1,0,2.69
			l2.33-6.851l6.21,14.101l6.74,18.859c0,0,3.72,4.63,3.359,9.07c-0.208,2.676,0.521,5.341,2.061,7.54c0,0,1.93,9,4.5,11.16
			c2.569,2.16,2.729,6.62,2.729,6.62s3.51,13,5,15.21S882.87,518.74,882.87,518.74z"/>
	</g>
	<path id="svg_150" fill="#FFCDD3" d="M885.2,192.87l-1.08,6.51l0.189,2.87l0.141,2.12l-7.351,1l-0.89-1.5l0,0
		c-1.63-2.71-5-8.22-6.08-9c-1.399-1.09-4.53-18.95-1.57-18c1.812,0.62,3.329,1.888,4.261,3.56
		C872.82,180.43,887.4,181.55,885.2,192.87z"/>
	<path id="svg_151" opacity="0.1" enable-background="new    " d="M884.45,204.37l-7.351,1l-0.89-1.5l0,0
		c1.959-2.414,5.35-3.108,8.1-1.66L884.45,204.37z"/>
	<path id="svg_152" fill="#DCE6F2" d="M886.4,207.8l-9.641,2.63l-0.26-1.44l-0.7-3.88c0,0,3.65-5.28,9.37-1.64l0.561,2L886.4,207.8z
		"/>
	<path id="svg_153" fill="#FFCDD3" d="M728.31,199.62l-10.17,6c0,0-0.43-0.8-1-1.92c-1.069-2-2.659-5.1-3.109-6.2
		c-0.681-1.69-5.101-3.7-5.101-3.7c-11.27-10,1.341-19.39,1.341-19.39c6.319-14.06,14.67,4.12,14.67,4.12s1.439,9.69,0.71,10.38
		c-0.73,0.69-0.62,3.34-0.62,3.34c1.068,1.872,1.981,3.829,2.729,5.85C728.12,199.02,728.31,199.62,728.31,199.62z"/>
	<path id="svg_154" opacity="0.1" enable-background="new    " d="M728.31,199.62l-10.17,6c0,0-0.43-0.8-1-1.92
		c1.41-1.28,6.45-5.7,8.16-5.57c0.818,0.077,1.642,0.077,2.46,0C728.12,199.02,728.31,199.62,728.31,199.62z"/>
	<path id="svg_155" fill="#DCE6F2" d="M729.49,202.72l-11.45,6.2l-0.33-2.5l-0.229-1.73c0,0,6.539-6.05,8.55-5.91
		c1.001,0.1,2.01,0.059,3-0.12l0.22,2.09L729.49,202.72z"/>
	<path id="svg_156" fill="#FFCDD3" d="M858.56,236.8c0,0-50.659,7.7-41.27,4.25c6.54-2.42,9-6.73,9.38-11.41
		c0.29-3.93-0.87-8.12-2.35-11.71c-1.328-3.157-2.97-6.172-4.9-9c0,0,38.07-22.89,31-3.14c-1.091,2.986-1.715,6.123-1.85,9.3
		c-0.114,3.154,0.347,6.302,1.359,9.29C851.604,229.238,854.591,233.537,858.56,236.8z"/>
	<path id="svg_157" opacity="0.1" enable-background="new    " d="M850.46,205.8c-1.091,2.987-1.715,6.124-1.85,9.3
		c-3.54,3.22-7.57,3.17-12.73,3.37c-4,0.15-8.319,1.28-11.56-0.51c-1.328-3.157-2.97-6.172-4.9-9
		C819.42,208.96,857.49,186.06,850.46,205.8z"/>
	<circle id="svg_158" fill="#FFCDD3" cx="834.44" cy="198.81" r="21.06"/>
	<path id="svg_159" opacity="0.1" enable-background="new    " d="M858.56,236.8c0,0-50.659,7.7-41.27,4.25
		c6.54-2.42,9-6.73,9.38-11.41c2.43-2.85,7.44-5,10.67-6.2c2.944-1.117,6.162-1.292,9.21-0.5c1.203,0.306,2.354,0.784,3.42,1.42
		C851.629,229.221,854.603,233.526,858.56,236.8z"/>
	<path id="svg_160" opacity="0.1" enable-background="new    " d="M886.4,207.8l-9.641,2.63l-0.26-1.44
		c2.021-3.01,5.711-4.433,9.23-3.56L886.4,207.8z"/>
	<path id="svg_161" opacity="0.1" enable-background="new    " d="M729.49,202.72l-11.45,6.2l-0.33-2.5
		c3.712-2.164,7.583-4.043,11.58-5.62L729.49,202.72z"/>
	<path id="svg_162" opacity="0.1" enable-background="new    " d="M883.62,364.28c-19.58,3.869-47.47,9-52,7.81
		c-3.74-1-15.521-0.409-25.771,0.341c-0.109-5.141-0.149-8.551-0.149-8.551l76.069-10.89
		C882.046,356.802,882.665,360.58,883.62,364.28z"/>
	<path id="svg_163" fill="#3F3D56" d="M903.1,358.899c0,0-64.46,13.631-71.51,11.781c-7.05-1.851-42.71,1.819-42.71,1.819
		c-15.67,11.399-9.57-4.771-9.57-4.771s-1.729-8.25,0-15.049c1.106-4.979,1.799-10.039,2.07-15.131c0,0-0.76-10.59,1.09-13.14
		c1.851-2.55,3.471-20.32,3.471-20.32s1.3-12.09,1-14.74c-0.301-2.65,0.149-10.09,0.149-10.09l1.8-12.46
		c-13.33-1.26-54.59-24.46-54.59-24.46c-2.27-8.23-18-27.1-18-27.1c-0.279-1.629-0.756-3.217-1.42-4.73
		c-1.17-2.79,14.53-9.06,14.53-9.06s12.4,14,15,17.84s11.39,10.72,11.39,10.72c1.313-0.19,2.652-0.07,3.91,0.35l0.2,0.06l0,0
		c2.888,1.015,5.612,2.443,8.09,4.24c3.982-0.25,7.906,1.059,10.94,3.65c0,0,7.21-1.34,8.489-0.15c1.28,1.19,7.431-0.28,7.431-0.28
		s5.68-13.33,9.89-9.68c4.21,3.65,21.47,2.8,21.47,2.8c2.181-3.14,7.69-5.55,11.15-6.81c2.942-1.121,6.161-1.299,9.21-0.51
		c1.32,0.323,2.576,0.871,3.71,1.62l10.86,9.85c0,0,2.859-4,2.47-4.88s3.479-1.72,3.479-1.72s5.061-1.79,7-2.4
		c1.94-0.61,3.78,1.44,3.95,1.61c-0.08-0.22-1.569-4.45-1.18-7.74s-2.37-6.28-2.37-6.28c5.61-15.44,20.061-3.25,20.061-3.25
		s1.92,8.25,0.619,11.49c-1.3,3.24,1.801,9.84,1.511,11.62c-0.29,1.78,0.89,4.75,1,8.11c0.109,3.36-1.391,9.79-2.341,12.66
		c-0.949,2.87-9.199,9.56-9.199,9.56s-0.141,10.1-3.631,16.08c-3.489,5.98-0.42,25.87-0.42,25.87s4.141,15.42,8.75,20.2
		C895.46,330.86,903.1,358.899,903.1,358.899z"/>
	<path id="svg_164" opacity="0.1" enable-background="new    " d="M804.03,246.2c0,0-2.17-5.76-4-6.22
		c-1.781-0.584-3.521-1.286-5.21-2.1l1-2.22c0,0,6.71,1.56,7.85,3.47S804.03,246.2,804.03,246.2z"/>
	<path id="svg_165" opacity="0.1" enable-background="new    " d="M768,234.66c-0.29,1.78-16,4-16,4l7.65-8.29l0,0l0.199,0.06l0,0
		C762.758,231.437,765.503,232.861,768,234.66z"/>
	<circle id="svg_166" fill="#575988" cx="721.54" cy="212.14" r="1.42"/>
	<circle id="svg_167" fill="#575988" cx="723.46" cy="214.9" r="1.42"/>
	<circle id="svg_168" fill="#575988" cx="725.33" cy="217.44" r="1.42"/>
	<circle id="svg_169" fill="#575988" cx="727.29" cy="220.2" r="1.42"/>
	<circle id="svg_170" fill="#575988" cx="893.95" cy="213.63" r="1.15"/>
	<circle id="svg_171" fill="#575988" cx="894.23" cy="216.23" r="1.15"/>
	<circle id="svg_172" fill="#575988" cx="894.48" cy="218.83" r="1.15"/>
	<path id="svg_173" opacity="0.1" enable-background="new    " d="M805.96,294.11c-0.17-0.2,41.62,48.6,71.45,18.32
		C877.4,312.43,828.77,320.94,805.96,294.11z"/>
	<path id="svg_174" opacity="0.1" enable-background="new    " d="M784.07,321.16c0,0,23.88-0.27,26.64,6.489l0.271,7.141
		c-1.351,0.824-3.031,0.889-4.44,0.17c-2.45-1.2-17.15-8-22.1-4.25L784.07,321.16z"/>
	<path id="svg_175" fill="#656691" d="M784.52,321.14c0,0,22.83-0.26,25.471,6.19l0.26,6.81c-1.294,0.784-2.9,0.845-4.25,0.16
		c-2.34-1.15-16.4-7.6-21.13-4.05L784.52,321.14z"/>
	<path id="svg_176" opacity="0.1" enable-background="new    " d="M795.1,268.87c2.653,5.546,5.964,10.754,9.86,15.51
		c4.239,5.258,9.305,9.791,15,13.42C819.96,297.8,795.62,272.13,795.1,268.87z"/>
	<path id="svg_177" opacity="0.1" enable-background="new    " d="M786.23,241.46c0,0,4.64,17,15.119,22.46L786.23,241.46z"/>
	<path id="svg_178" opacity="0.1" enable-background="new    " d="M780.2,243.43c-0.12-0.32-3,13.72,14,20.76
		C794.23,264.19,787.02,262.05,780.2,243.43z"/>
	<path id="svg_179" opacity="0.1" enable-background="new    " d="M883.89,227.9c-0.26,0,8.48,5.11,10.891,7.55
		C894.78,235.45,888.92,227.35,883.89,227.9z"/>
	<path id="svg_180" fill="#2D293D" d="M829.48,218.1c0.071,1.827,1.61,3.249,3.438,3.177c0.104-0.004,0.209-0.013,0.313-0.027
		c6.43,0.15,13.119,0.18,19-2.52c1.085-0.428,2.05-1.114,2.81-2c1-1.33,1.14-3.09,1.51-4.72c0.71-3.17,2.37-6,3.54-9.08
		c1.939-5.146,2.431-10.725,1.42-16.13c-0.224-1.661-0.833-3.247-1.779-4.63c-1.801-2.37-4.94-3.23-7.261-5.08
		c-2.319-1.85-3.89-4.75-6.569-6.1c-2.42-1.22-5.311-1-8-0.4c-5.214,1.097-10.17,3.181-14.601,6.14c-1.49,1-3.12,2.13-4.89,1.87
		c-1.55-0.23-2.71-1.48-3.75-2.65c-1.142,2.934-1.561,6.1-1.22,9.23c0.079,0.457,0.079,0.923,0,1.38
		c-0.203,0.556-0.52,1.063-0.931,1.49c-1.51,1.9-2.39,4.85-0.75,6.64c0.71,0.79,1.771,1.19,2.471,2c1.239,1.43,0.92,3.57,1,5.46
		c-0.048,0.662,0.144,1.318,0.539,1.85c0.724,0.618,1.716,0.815,2.62,0.52c0.884-0.304,1.818-0.43,2.75-0.37
		c1.003,0.287,1.878,0.908,2.48,1.76C826.75,209.52,828.06,213.62,829.48,218.1z"/>
	<g id="svg_181" opacity="0.1">
		<path id="svg_182" d="M855.65,215.05c-0.764,0.887-1.731,1.574-2.82,2c-5.84,2.7-12.521,2.68-18.95,2.52
			c-1.811,0.25-3.481-1.015-3.731-2.826c-0.015-0.104-0.024-0.209-0.028-0.314c-1.41-4.49-2.73-8.59-5.84-12.24
			c-0.601-0.849-1.472-1.469-2.471-1.76c-0.935-0.055-1.872,0.071-2.76,0.37c-0.904,0.295-1.896,0.098-2.62-0.52
			c-0.391-0.535-0.582-1.189-0.54-1.85c0-1.89,0.28-4-1-5.46c-0.689-0.8-1.76-1.2-2.47-2c-0.946-1.193-1.165-2.808-0.57-4.21
			c-1.05,1.83-1.449,4.14-0.08,5.65c0.711,0.78,1.78,1.18,2.471,2c1.24,1.43,0.93,3.57,1,5.47c-0.046,0.658,0.146,1.311,0.54,1.84
			c0.72,0.624,1.716,0.821,2.62,0.521c0.887-0.3,1.824-0.426,2.76-0.37c0.997,0.294,1.866,0.914,2.47,1.76
			c3.11,3.66,4.42,7.75,5.84,12.24c0.208,1.116,0.834,2.11,1.75,2.78c0.63,0.274,1.314,0.401,2,0.37c6.431,0.15,13.12,0.17,19-2.53
			c1.088-0.43,2.056-1.116,2.82-2c0.377-0.528,0.661-1.117,0.84-1.74C855.81,214.855,855.733,214.955,855.65,215.05z"/>
		<path id="svg_183" d="M813.53,185.97c0.273-0.318,0.479-0.689,0.6-1.09c0.085-0.456,0.085-0.924,0-1.38
			c-0.273-2.571-0.036-5.171,0.7-7.65l-0.13-0.14c-1.141,2.935-1.56,6.1-1.22,9.23C813.526,185.281,813.543,185.626,813.53,185.97z"
			/>
	</g>
	<path id="svg_184" opacity="0.1" enable-background="new    " d="M826.22,231c0,0,26.42,2.48,28.63-1.57"/>
	<path id="svg_185" opacity="0.1" enable-background="new    " d="M876.9,218.16c0,0,14.6-0.54,18,4.81"/>
	<path id="svg_90" fill="none" d="M440.05,441.67c-0.114-0.479-0.114-0.98,0-1.46c0.237-1.393-0.126-2.82-1-3.93
		c-1.3-1.471-3.5-1.61-5.45-1.86c-1.949-0.25-4.21-1-4.77-2.88c-0.4-1.36,0.21-3-0.66-4.14c-0.399-0.465-0.918-0.811-1.5-1
		c-1.43-0.639-3.031-0.779-4.55-0.4c-2.601,0.84-4.16,3.89-6.86,4.28c-0.408,0.069-0.828,0.021-1.21-0.141
		c-1-0.52-1.069-2-1.85-2.819c-1.24-1.311-3.58-0.471-5.09-1.44c-0.91-0.754-1.496-1.827-1.641-3c-0.676-2.18-0.83-4.489-0.45-6.74
		c0.881-3.779,4.261-6.369,6.421-9.6c2-3,3.14-6.811,6.159-8.811c3.021-2,6.9-1.539,10.311-0.529c1.57,0.563,3.187,0.986,4.83,1.27
		c2.74,0.34,5.5-0.41,8.27-0.5c3.907-0.128,7.746,1.039,10.92,3.32c0.715,0.467,1.321,1.08,1.78,1.8
		c0.465,1.021,0.735,2.12,0.8,3.24c0.323,2.1,1.05,4.116,2.141,5.94c0.859,1.43,1.93,2.729,2.699,4.209
		c0.864,1.446,1.126,3.174,0.73,4.811c-0.26,0.84-0.771,1.59-1,2.45c-0.45,2,0.86,3.88,1.75,5.71c0.863,1.672,1.273,3.54,1.189,5.42
		c-0.104,1.891-0.987,3.654-2.439,4.87c-1.51,1.05-3.312,1.596-5.15,1.56c-2.232,0.07-4.459-0.269-6.569-1
		c-0.776-0.353-1.631-0.5-2.48-0.43c-1.189,0.24-1,1-1.54,1.84C443.23,442.97,440.59,443.19,440.05,441.67z"/>
</g>
</svg>
